<svg xmlns="http://www.w3.org/2000/svg" viewBox="0 0 64 64" fill="none" stroke="#67543f" stroke-width="2.6" stroke-linecap="round" stroke-linejoin="round" aria-hidden="true"><path stroke="#d9b47e" stroke-width="9" d="M4 34h56"/><path stroke="#b98a4e" stroke-width="1.6" d="M14 31l4 6m6-6l4 6m8-6l4 6m6-6l4 6m6-6l4 6"/><g transform="translate(18 34) scale(1)" fill="#f4ecd5"><path d="M-9 7Q0 -8 9 7Q12 15 0 13Q-12 15 -9 7Z"/><ellipse cx="-11" cy="-4" rx="3.6" ry="5"/><ellipse cx="-4" cy="-11" rx="3.6" ry="5"/><ellipse cx="4" cy="-11" rx="3.6" ry="5"/><ellipse cx="11" cy="-4" rx="3.6" ry="5"/></g><g transform="translate(46 34) scale(1)" fill="#f4ecd5"><path d="M-9 7Q0 -8 9 7Q12 15 0 13Q-12 15 -9 7Z"/><ellipse cx="-11" cy="-4" rx="3.6" ry="5"/><ellipse cx="-4" cy="-11" rx="3.6" ry="5"/><ellipse cx="4" cy="-11" rx="3.6" ry="5"/><ellipse cx="11" cy="-4" rx="3.6" ry="5"/></g><path fill="#c88c75" d="M28 28h8l2.5 6-6.5 5-6.5-5Z"/></svg>
