<svg xmlns="http://www.w3.org/2000/svg" viewBox="0 0 64 64" fill="none" stroke="#67543f" stroke-width="2.6" stroke-linecap="round" stroke-linejoin="round"><ellipse cx="32" cy="55" rx="17" ry="4" fill="#67543f22" stroke="none"/><circle cx="32" cy="30" r="24" fill="#efe1bd"/><path fill="#94aa91" stroke="none" d="M32 6a24 24 0 0 1 20.8 12Q40 20 32 30Q28 18 32 6Z"/><path fill="#94aa91" stroke="none" d="M12 42a24 24 0 0 1-3-18Q22 22 32 30Q22 34 12 42Z"/><path fill="#94aa91" stroke="none" d="M36 53.6a24 24 0 0 0 15-9.6Q44 38 32 30Q36 42 36 53.6Z"/><path d="M32 6Q28 18 32 30 22 22 9 24M32 30Q44 20 52.8 18M32 30Q36 42 36 53.6M32 30Q22 34 12 42"/><circle cx="32" cy="30" r="24"/></svg>
